<svg width="8" height="10" viewBox="0 0 8 10" fill="none" xmlns="http://www.w3.org/2000/svg">
<path d="M3.92856 10C3.2197 9.40158 2.56265 8.74553 1.96428 8.03872C1.06632 6.97726 4.93256e-07 5.39645 4.93256e-07 3.89008C-0.000388939 3.12076 0.229826 2.36862 0.66151 1.72885C1.09319 1.08907 1.70694 0.590423 2.42508 0.296002C3.14322 0.0015812 3.93347 -0.0753741 4.69582 0.0748752C5.45817 0.225125 6.15834 0.595824 6.70774 1.14006C7.07352 1.50047 7.36344 1.92909 7.56073 2.40113C7.75803 2.87317 7.85877 3.37925 7.85712 3.89008C7.85712 5.39645 6.7908 6.97726 5.89284 8.03872C5.29447 8.74553 4.63742 9.40158 3.92856 10ZM3.92856 2.22374C3.48202 2.22374 3.05378 2.3993 2.73803 2.7118C2.42228 3.0243 2.24489 3.44814 2.24489 3.89008C2.24489 4.33202 2.42228 4.75586 2.73803 5.06836C3.05378 5.38086 3.48202 5.55642 3.92856 5.55642C4.3751 5.55642 4.80335 5.38086 5.1191 5.06836C5.43484 4.75586 5.61223 4.33202 5.61223 3.89008C5.61223 3.44814 5.43484 3.0243 5.1191 2.7118C4.80335 2.3993 4.3751 2.22374 3.92856 2.22374Z" fill="#404F5C"/>
</svg>
