<svg width="8" height="14" viewBox="0 0 8 14" fill="none" xmlns="http://www.w3.org/2000/svg">
<path d="M0.999543 13.9982C0.766408 13.9987 0.540473 13.9175 0.360959 13.7687C0.259925 13.6849 0.176408 13.5821 0.115192 13.466C0.0539759 13.3499 0.0162632 13.2229 0.00421408 13.0922C-0.00783507 12.9615 0.00601624 12.8297 0.0449743 12.7044C0.0839324 12.5791 0.147231 12.4626 0.231247 12.3618L4.70133 7.01368L0.390894 1.65557C0.308011 1.5535 0.246117 1.43607 0.208768 1.31001C0.171419 1.18395 0.159352 1.05175 0.17326 0.921013C0.187169 0.790274 0.226778 0.663573 0.289812 0.548193C0.352846 0.432812 0.438062 0.331026 0.540561 0.248686C0.643798 0.157851 0.764696 0.0893352 0.895668 0.0474391C1.02664 0.00554297 1.16486 -0.00882886 1.30165 0.00522486C1.43844 0.0192786 1.57085 0.0614548 1.69056 0.129107C1.81028 0.196758 1.91472 0.288425 1.99733 0.398354L6.81664 6.38508C6.9634 6.56362 7.04363 6.78756 7.04363 7.01867C7.04363 7.24979 6.9634 7.47373 6.81664 7.65227L1.82771 13.639C1.72761 13.7597 1.60046 13.8552 1.45657 13.9176C1.31268 13.98 1.1561 14.0076 0.999543 13.9982Z" fill="#404F5C"/>
<path d="M0.999543 13.9982C0.766408 13.9987 0.540473 13.9175 0.360959 13.7687C0.259925 13.6849 0.176408 13.5821 0.115192 13.466C0.0539759 13.3499 0.0162632 13.2229 0.00421408 13.0922C-0.00783507 12.9615 0.00601624 12.8297 0.0449743 12.7044C0.0839324 12.5791 0.147231 12.4626 0.231247 12.3618L4.70133 7.01368L0.390894 1.65557C0.308011 1.5535 0.246117 1.43607 0.208768 1.31001C0.171419 1.18395 0.159352 1.05175 0.17326 0.921013C0.187169 0.790274 0.226778 0.663573 0.289812 0.548193C0.352846 0.432812 0.438062 0.331026 0.540561 0.248686C0.643798 0.157851 0.764696 0.0893352 0.895668 0.0474391C1.02664 0.00554297 1.16486 -0.00882886 1.30165 0.00522486C1.43844 0.0192786 1.57085 0.0614548 1.69056 0.129107C1.81028 0.196758 1.91472 0.288425 1.99733 0.398354L6.81664 6.38508C6.9634 6.56362 7.04363 6.78756 7.04363 7.01867C7.04363 7.24979 6.9634 7.47373 6.81664 7.65227L1.82771 13.639C1.72761 13.7597 1.60046 13.8552 1.45657 13.9176C1.31268 13.98 1.1561 14.0076 0.999543 13.9982Z" stroke="#404F5C"/>
</svg>
