<svg width="8" height="14" viewBox="0 0 8 14" fill="none" xmlns="http://www.w3.org/2000/svg">
<path d="M7.00046 0.00180435C7.23359 0.00134945 7.45953 0.0825443 7.63904 0.231296C7.74008 0.315059 7.82359 0.417933 7.88481 0.534022C7.94602 0.650112 7.98374 0.777137 7.99579 0.907824C8.00784 1.03851 7.99398 1.17029 7.95503 1.29562C7.91607 1.42094 7.85277 1.53735 7.76875 1.63818L3.29867 6.98632L7.60911 12.3444C7.69199 12.4465 7.75388 12.5639 7.79123 12.69C7.82858 12.8161 7.84065 12.9482 7.82674 13.079C7.81283 13.2097 7.77322 13.3364 7.71019 13.4518C7.64715 13.5672 7.56194 13.669 7.45944 13.7513C7.3562 13.8421 7.2353 13.9107 7.10433 13.9526C6.97336 13.9945 6.83514 14.0088 6.69835 13.9948C6.56156 13.9807 6.42915 13.9385 6.30944 13.8709C6.18972 13.8032 6.08528 13.7116 6.00267 13.6016L1.18336 7.61492C1.0366 7.43638 0.956373 7.21244 0.956373 6.98133C0.956373 6.75021 1.0366 6.52627 1.18336 6.34773L6.17229 0.361009C6.27239 0.240259 6.39954 0.144807 6.54343 0.0823965C6.68732 0.0199862 6.8439 -0.00762463 7.00046 0.00180435Z" fill="#404F5C"/>
<path d="M7.00046 0.00180435C7.23359 0.00134945 7.45953 0.0825443 7.63904 0.231296C7.74008 0.315059 7.82359 0.417933 7.88481 0.534022C7.94602 0.650112 7.98374 0.777137 7.99579 0.907824C8.00784 1.03851 7.99398 1.17029 7.95503 1.29562C7.91607 1.42094 7.85277 1.53735 7.76875 1.63818L3.29867 6.98632L7.60911 12.3444C7.69199 12.4465 7.75388 12.5639 7.79123 12.69C7.82858 12.8161 7.84065 12.9482 7.82674 13.079C7.81283 13.2097 7.77322 13.3364 7.71019 13.4518C7.64715 13.5672 7.56194 13.669 7.45944 13.7513C7.3562 13.8421 7.2353 13.9107 7.10433 13.9526C6.97336 13.9945 6.83514 14.0088 6.69835 13.9948C6.56156 13.9807 6.42915 13.9385 6.30944 13.8709C6.18972 13.8032 6.08528 13.7116 6.00267 13.6016L1.18336 7.61492C1.0366 7.43638 0.956373 7.21244 0.956373 6.98133C0.956373 6.75021 1.0366 6.52627 1.18336 6.34773L6.17229 0.361009C6.27239 0.240259 6.39954 0.144807 6.54343 0.0823965C6.68732 0.0199862 6.8439 -0.00762463 7.00046 0.00180435Z" stroke="#404F5C"/>
</svg>
