<svg width="149" height="19" viewBox="0 0 149 19" fill="none" xmlns="http://www.w3.org/2000/svg">
<path d="M9.5 0L12.292 5.65717L18.535 6.56434L14.0175 10.9678L15.084 17.1857L9.5 14.25L3.91604 17.1857L4.98248 10.9678L0.464963 6.56434L6.70802 5.65717L9.5 0Z" fill="#FED66D"/>
<path d="M42 0L44.645 5.65717L50.5595 6.56434L46.2798 10.9678L47.2901 17.1857L42 14.25L36.7099 17.1857L37.7202 10.9678L33.4405 6.56434L39.355 5.65717L42 0Z" fill="#FED66D"/>
<path d="M74.5 0L77.292 5.65717L83.535 6.56434L79.0175 10.9678L80.084 17.1857L74.5 14.25L68.916 17.1857L69.9825 10.9678L65.465 6.56434L71.708 5.65717L74.5 0Z" fill="#FED66D"/>
<path d="M107 0L109.645 5.65717L115.56 6.56434L111.28 10.9678L112.29 17.1857L107 14.25L101.71 17.1857L102.72 10.9678L98.4405 6.56434L104.355 5.65717L107 0Z" fill="#FED66D"/>
<path d="M139.5 0L142.292 5.65717L148.535 6.56434L144.018 10.9678L145.084 17.1857L139.5 14.25L133.916 17.1857L134.982 10.9678L130.465 6.56434L136.708 5.65717L139.5 0Z" fill="#FED66D"/>
</svg>
